<svg width="52" height="48" viewBox="0 0 52 48" fill="none" xmlns="http://www.w3.org/2000/svg">
<path opacity="0.24" fill-rule="evenodd" clip-rule="evenodd" d="M50.78 20.0548C50.0393 15.5342 47.7349 12.1644 44.1136 10.3562C41.8915 9.28767 39.587 8.79452 37.118 8.79452C33.7436 8.79452 30.6162 9.78082 27.8179 10.6849L27.571 10.7609C25.5384 11.3861 23.8101 11.9178 22.386 11.9178C21.1515 11.9178 20.2462 11.5068 19.5878 10.6849C19.0568 10.0032 19.3647 8.97256 19.7383 7.72152L19.7384 7.72096C19.7702 7.61463 19.8024 7.50669 19.8347 7.39726L19.8524 7.33525C20.3439 5.61831 20.9702 3.43047 19.5878 1.64384C18.7647 0.575342 17.3656 0 15.7196 0C14.0736 0 12.3452 0.575343 10.9461 1.47945C4.11508 6.16438 0 13.9726 0 22.3562C0 36.4932 11.5222 48 25.6781 48C37.118 48 47.2411 40.3562 50.3685 29.3425C50.6154 28.1918 51.4384 24.2466 50.78 20.0548ZM37.0356 26.3835C33.8258 26.3835 31.2745 23.8356 31.2745 20.6301C31.2745 17.4246 33.8258 14.8767 37.0356 14.8767C40.2454 14.8767 42.7967 17.4246 42.7967 20.6301C42.7967 23.8356 40.2454 26.3835 37.0356 26.3835ZM22.2214 37.0685C22.2214 38.8767 23.7028 40.3562 25.5135 40.3562C27.3241 40.3562 28.8055 38.8767 28.8055 37.0685C28.8055 35.2603 27.3241 33.7808 25.5135 33.7808C23.7028 33.7808 22.2214 35.2603 22.2214 37.0685ZM13.6357 35.4055C11.9906 35.227 10.6992 33.8253 10.6992 32.137C10.6992 30.5548 11.8334 29.2243 13.3299 28.9164C13.5437 28.8724 13.7649 28.8493 13.9912 28.8493C13.9912 28.8493 13.9913 28.8493 13.9912 28.8493C15.8019 28.8493 17.2834 30.3287 17.2834 32.137C17.2834 33.7192 16.1491 35.0497 14.6525 35.3575C14.4388 35.4015 14.2177 35.4246 13.9914 35.4246C13.9914 35.4246 13.9915 35.4246 13.9914 35.4246C13.8713 35.4246 13.7525 35.4181 13.6357 35.4055ZM7.40731 20.6302C7.40731 18.8219 8.88874 17.3425 10.6994 17.3425C12.51 17.3425 13.9914 18.8219 13.9914 20.6302C13.9914 22.4384 12.51 23.9178 10.6994 23.9178C8.88874 23.9178 7.40731 22.4384 7.40731 20.6302Z" fill="#E02D69"/>
<path opacity="0.48" fill-rule="evenodd" clip-rule="evenodd" d="M22.2213 37.0685C22.2213 38.8768 23.7027 40.3562 25.5134 40.3562C27.324 40.3562 28.8054 38.8768 28.8054 37.0685C28.8054 35.2603 27.324 33.7809 25.5134 33.7809C23.7027 33.7809 22.2213 35.2603 22.2213 37.0685ZM13.6356 35.4055C11.9905 35.227 10.6991 33.8253 10.6991 32.137C10.6991 30.5548 11.8333 29.2243 13.3299 28.9164C13.5436 28.8725 13.7648 28.8493 13.9912 28.8493C15.8018 28.8493 17.2833 30.3288 17.2833 32.137C17.2833 33.7192 16.1491 35.0497 14.6525 35.3576C14.4387 35.4016 14.2176 35.4247 13.9913 35.4247C13.8712 35.4247 13.7524 35.4182 13.6356 35.4055ZM7.40723 20.6302C7.40723 18.822 8.88865 17.3425 10.6993 17.3425C12.5099 17.3425 13.9913 18.822 13.9913 20.6302C13.9913 22.4384 12.5099 23.9179 10.6993 23.9179C8.88865 23.9179 7.40723 22.4384 7.40723 20.6302Z" fill="#E02D69"/>
<path fill-rule="evenodd" clip-rule="evenodd" d="M37.0355 26.3836C33.8258 26.3836 31.2744 23.8356 31.2744 20.6301C31.2744 17.4247 33.8258 14.8767 37.0355 14.8767C40.2453 14.8767 42.7966 17.4247 42.7966 20.6301C42.7966 23.8356 40.2453 26.3836 37.0355 26.3836Z" fill="#E02D69"/>
</svg>
