<svg width="48" height="48" viewBox="0 0 48 48" fill="none" xmlns="http://www.w3.org/2000/svg">
<path fill-rule="evenodd" clip-rule="evenodd" d="M25.3773 30.5662C25.9551 30.2333 26.6885 30.3626 27.1176 30.8731L28.5801 32.6129L18.7656 38.9708L12.6592 37.8941L25.3773 30.5662Z" fill="white" fill-opacity="0.3"/>
<path d="M26.3168 10.3382C27.3386 9.12047 29.2955 9.46553 29.8392 10.9593L38.7084 35.3272C39.2521 36.821 37.9748 38.3432 36.4093 38.0672L10.8715 33.5642C9.30602 33.2881 8.62639 31.4209 9.64822 30.2031L26.3168 10.3382Z" fill="url(#paint0_linear_575_14988)"/>
<path d="M22.519 18.32C22.8154 16.9255 24.1861 16.0354 25.5806 16.3318C26.9751 16.6282 27.8652 17.9989 27.5688 19.3934C27.2724 20.7879 25.9017 21.678 24.5072 21.3816C23.1127 21.0852 22.2226 19.7145 22.519 18.32Z" fill="white"/>
<path d="M22.0858 26.7281C22.6636 26.3952 23.3969 26.5245 23.826 27.035L31.8626 36.5953L11.2641 32.9632L22.0858 26.7281Z" fill="white" fill-opacity="0.3"/>
<path d="M27.3966 26.8488C28.0022 26.4565 28.8079 26.5986 29.2428 27.1743L37.0807 37.5512L16.4822 33.9192L27.3966 26.8488Z" fill="white"/>
<defs>
<linearGradient id="paint0_linear_575_14988" x1="23.9994" y1="9.59996" x2="23.9994" y2="38.0998" gradientUnits="userSpaceOnUse">
<stop stop-color="#ED3FDC"/>
<stop offset="1" stop-color="#FC8C23"/>
</linearGradient>
</defs>
</svg>
