<svg width="158" height="48" viewBox="0 0 158 48" fill="none" xmlns="http://www.w3.org/2000/svg">
<path fill-rule="evenodd" clip-rule="evenodd" d="M25.3773 30.5662C25.9551 30.2333 26.6885 30.3626 27.1176 30.8731L28.5801 32.6129L18.7656 38.9708L12.6592 37.8941L25.3773 30.5662Z" fill="white" fill-opacity="0.3"/>
<path d="M26.3168 10.3382C27.3386 9.12047 29.2955 9.46553 29.8392 10.9593L38.7084 35.3272C39.2521 36.821 37.9748 38.3432 36.4093 38.0672L10.8715 33.5642C9.30602 33.2881 8.62639 31.4208 9.64822 30.2031L26.3168 10.3382Z" fill="url(#paint0_linear_404_1716)"/>
<path d="M22.519 18.32C22.8154 16.9255 24.1861 16.0354 25.5806 16.3318V16.3318C26.9751 16.6282 27.8652 17.9989 27.5688 19.3934V19.3934C27.2724 20.7879 25.9017 21.678 24.5072 21.3816V21.3816C23.1127 21.0852 22.2226 19.7145 22.519 18.32V18.32Z" fill="white"/>
<path d="M22.0858 26.7281C22.6636 26.3952 23.3969 26.5245 23.826 27.035L31.8626 36.5953L11.2641 32.9632L22.0858 26.7281Z" fill="white" fill-opacity="0.3"/>
<path d="M27.3966 26.8488C28.0022 26.4565 28.8079 26.5986 29.2428 27.1743L37.0807 37.5512L16.4822 33.9192L27.3966 26.8488Z" fill="white"/>
<path d="M68.4961 33.293C64.1602 33.293 61.4062 30.7852 61.4062 27.0234V16.0898H64.9453V26.707C64.9453 28.8984 66.2227 30.293 68.4961 30.293C70.7695 30.293 72.0352 28.8984 72.0352 26.707V16.0898H75.5742V27.0234C75.5742 30.7734 72.8555 33.293 68.4961 33.293ZM78.1055 33V20.4375H81.5273V22.5H81.5977C82.2422 21.0586 83.5312 20.1797 85.4297 20.1797C88.1953 20.1797 89.7656 21.9492 89.7656 24.8906V33H86.3438V25.5938C86.3438 23.9531 85.5703 23.0156 84.0352 23.0156C82.5 23.0156 81.5273 24.1406 81.5273 25.7812V33H78.1055ZM93.7148 18.8203C92.6836 18.8203 91.8867 18.0117 91.8867 17.0391C91.8867 16.0664 92.6836 15.2578 93.7148 15.2578C94.7461 15.2578 95.543 16.0664 95.543 17.0391C95.543 18.0117 94.7461 18.8203 93.7148 18.8203ZM92.0039 33V20.4375H95.4258V33H92.0039ZM103.465 33.2578C99.6328 33.2578 97.2656 30.7617 97.2656 26.707V26.6953C97.2656 22.6758 99.668 20.1797 103.43 20.1797C106.84 20.1797 109.008 22.2773 109.137 24.9961V25.0781H105.961L105.938 24.9727C105.727 23.7773 104.895 22.8633 103.477 22.8633C101.801 22.8633 100.746 24.3047 100.746 26.707V26.7188C100.746 29.1797 101.801 30.5742 103.488 30.5742C104.859 30.5742 105.715 29.7305 105.949 28.4648L105.961 28.3594H109.148V28.4297C108.984 31.1719 106.816 33.2578 103.465 33.2578ZM114.539 33.1992C112.02 33.1992 110.32 31.6172 110.32 29.4023V29.3789C110.32 27.0938 112.09 25.7578 115.207 25.5586L118.312 25.3711V24.5977C118.312 23.4844 117.586 22.793 116.25 22.793C114.973 22.793 114.199 23.3906 114.035 24.1992L114.012 24.3047H110.883L110.895 24.1641C111.082 21.8438 113.074 20.1797 116.391 20.1797C119.637 20.1797 121.734 21.8555 121.734 24.3867V33H118.312V31.125H118.242C117.527 32.4141 116.191 33.1992 114.539 33.1992ZM113.707 29.2266C113.707 30.1523 114.469 30.7031 115.652 30.7031C117.188 30.7031 118.312 29.7188 118.312 28.4062V27.5039L115.723 27.668C114.398 27.75 113.707 28.3125 113.707 29.2031V29.2266ZM123.949 33V20.4375H127.371V22.5469H127.441C127.957 21.1172 129.27 20.1797 130.957 20.1797C132.715 20.1797 133.992 21.1172 134.414 22.7695H134.484C135.047 21.1875 136.547 20.1797 138.387 20.1797C140.848 20.1797 142.5 21.8789 142.5 24.4102V33H139.078V25.2656C139.078 23.8125 138.352 23.0156 137.027 23.0156C135.727 23.0156 134.871 23.9648 134.871 25.3594V33H131.578V25.1602C131.578 23.8125 130.816 23.0156 129.551 23.0156C128.25 23.0156 127.371 24 127.371 25.418V33H123.949ZM144.668 37.1016V20.4375H148.09V22.6289H148.172C148.852 21.1055 150.223 20.1797 152.004 20.1797C155.191 20.1797 157.137 22.6172 157.137 26.707V26.7188C157.137 30.7969 155.191 33.2578 152.051 33.2578C150.258 33.2578 148.84 32.3438 148.16 30.8555H148.09V37.1016H144.668ZM150.879 30.4219C152.578 30.4219 153.656 29.0039 153.656 26.7188V26.707C153.656 24.4102 152.578 23.0156 150.879 23.0156C149.215 23.0156 148.078 24.4453 148.078 26.7188V26.7305C148.078 28.9922 149.215 30.4219 150.879 30.4219Z" fill="white"/>
<defs>
<linearGradient id="paint0_linear_404_1716" x1="23.9994" y1="9.59996" x2="23.9994" y2="38.0998" gradientUnits="userSpaceOnUse">
<stop stop-color="#ED3FDC"/>
<stop offset="1" stop-color="#FC8C23"/>
</linearGradient>
</defs>
</svg>
