<svg width="140" height="34" viewBox="0 0 140 34" fill="none" xmlns="http://www.w3.org/2000/svg">
<path d="M16.6133 1.21502C17.6029 0.0356159 19.4982 0.369804 20.0248 1.81656L28.6145 25.4167C29.1411 26.8634 27.904 28.3377 26.3878 28.0703L1.65464 23.7092C0.138428 23.4419 -0.519788 21.6334 0.469849 20.454L16.6133 1.21502Z" fill="#0A071D"/>
<path d="M12.9358 8.94537C13.2229 7.59483 14.5504 6.73271 15.9009 7.01978C17.2515 7.30685 18.1136 8.63439 17.8265 9.98493C17.5395 11.3355 16.2119 12.1976 14.8614 11.9105C13.5108 11.6235 12.6487 10.2959 12.9358 8.94537Z" fill="white"/>
<path d="M12.7564 16.9489C13.1763 16.707 13.7092 16.801 14.0211 17.172L21.9837 26.6444L2.03415 23.1268L12.7564 16.9489Z" fill="white" fill-opacity="0.3"/>
<path d="M17.919 17.0367C18.3591 16.7516 18.9446 16.8548 19.2606 17.2732L27.0382 27.5702L7.08868 24.0526L17.919 17.0367Z" fill="white"/>
<path d="M46.5458 24.74C45.5698 24.74 44.7618 24.564 44.1218 24.212C43.4818 23.844 43.0018 23.3 42.6818 22.58C42.3778 21.86 42.2258 20.964 42.2258 19.892V12.764H45.2258V19.94C45.2258 20.484 45.2978 20.94 45.4418 21.308C45.6018 21.676 45.8338 21.948 46.1378 22.124C46.4578 22.3 46.8578 22.388 47.3378 22.388C47.8818 22.388 48.3538 22.268 48.7538 22.028C49.1698 21.772 49.4898 21.42 49.7138 20.972C49.9538 20.508 50.0738 19.972 50.0738 19.364V12.764H53.0738V24.5H50.1458V22.052H50.4818C50.1458 22.916 49.6338 23.58 48.9458 24.044C48.2738 24.508 47.4738 24.74 46.5458 24.74ZM56.9162 24.5V12.764H59.8442V15.116H59.5802C59.9322 14.268 60.4762 13.628 61.2122 13.196C61.9642 12.748 62.8122 12.524 63.7562 12.524C64.7002 12.524 65.4762 12.7 66.0842 13.052C66.6922 13.404 67.1482 13.94 67.4522 14.66C67.7562 15.364 67.9082 16.26 67.9082 17.348V24.5H64.9082V17.492C64.9082 16.884 64.8282 16.388 64.6682 16.004C64.5242 15.62 64.2922 15.34 63.9722 15.164C63.6682 14.972 63.2762 14.876 62.7962 14.876C62.2202 14.876 61.7162 15.004 61.2842 15.26C60.8522 15.5 60.5162 15.852 60.2762 16.316C60.0362 16.764 59.9162 17.292 59.9162 17.9V24.5H56.9162ZM71.4833 10.244V7.316H74.8433V10.244H71.4833ZM71.6753 24.5V12.764H74.6753V24.5H71.6753ZM83.9365 24.74C82.7045 24.74 81.6325 24.492 80.7205 23.996C79.8085 23.484 79.1045 22.764 78.6085 21.836C78.1125 20.908 77.8645 19.82 77.8645 18.572C77.8645 17.324 78.1125 16.252 78.6085 15.356C79.1045 14.444 79.8085 13.748 80.7205 13.268C81.6325 12.772 82.7045 12.524 83.9365 12.524C84.6885 12.524 85.4325 12.644 86.1685 12.884C86.9045 13.124 87.5125 13.46 87.9925 13.892L87.1045 15.98C86.6885 15.612 86.2165 15.332 85.6885 15.14C85.1765 14.948 84.6805 14.852 84.2005 14.852C83.1605 14.852 82.3525 15.18 81.7765 15.836C81.2165 16.476 80.9365 17.396 80.9365 18.596C80.9365 19.78 81.2165 20.716 81.7765 21.404C82.3525 22.076 83.1605 22.412 84.2005 22.412C84.6645 22.412 85.1605 22.316 85.6885 22.124C86.2165 21.932 86.6885 21.644 87.1045 21.26L87.9925 23.372C87.5125 23.788 86.8965 24.124 86.1445 24.38C85.4085 24.62 84.6725 24.74 83.9365 24.74ZM94.3465 24.74C93.4985 24.74 92.7385 24.58 92.0665 24.26C91.4105 23.924 90.8905 23.476 90.5065 22.916C90.1385 22.356 89.9545 21.724 89.9545 21.02C89.9545 20.156 90.1785 19.476 90.6265 18.98C91.0745 18.468 91.8025 18.1 92.8105 17.876C93.8185 17.652 95.1705 17.54 96.8665 17.54H98.0665V19.268H96.8905C96.1385 19.268 95.5065 19.3 94.9945 19.364C94.4825 19.412 94.0665 19.5 93.7465 19.628C93.4425 19.74 93.2185 19.9 93.0745 20.108C92.9465 20.316 92.8825 20.572 92.8825 20.876C92.8825 21.404 93.0665 21.836 93.4345 22.172C93.8025 22.508 94.3145 22.676 94.9705 22.676C95.4985 22.676 95.9625 22.556 96.3625 22.316C96.7785 22.06 97.1065 21.716 97.3465 21.284C97.5865 20.852 97.7065 20.356 97.7065 19.796V17.036C97.7065 16.236 97.5305 15.66 97.1785 15.308C96.8265 14.956 96.2345 14.78 95.4025 14.78C94.7465 14.78 94.0745 14.884 93.3865 15.092C92.6985 15.284 92.0025 15.588 91.2985 16.004L90.4345 13.964C90.8505 13.676 91.3385 13.428 91.8985 13.22C92.4745 12.996 93.0745 12.828 93.6985 12.716C94.3385 12.588 94.9385 12.524 95.4985 12.524C96.6505 12.524 97.5945 12.7 98.3305 13.052C99.0825 13.404 99.6425 13.94 100.01 14.66C100.378 15.364 100.562 16.276 100.562 17.396V24.5H97.7545V22.004H97.9465C97.8345 22.564 97.6105 23.052 97.2745 23.468C96.9545 23.868 96.5465 24.18 96.0505 24.404C95.5545 24.628 94.9865 24.74 94.3465 24.74ZM104.375 24.5V12.764H107.303V15.116H107.039C107.247 14.572 107.535 14.108 107.903 13.724C108.271 13.34 108.711 13.044 109.223 12.836C109.735 12.628 110.303 12.524 110.927 12.524C111.871 12.524 112.647 12.748 113.255 13.196C113.863 13.644 114.287 14.332 114.527 15.26H114.191C114.511 14.412 115.039 13.748 115.775 13.268C116.511 12.772 117.359 12.524 118.319 12.524C119.215 12.524 119.951 12.7 120.527 13.052C121.119 13.404 121.559 13.94 121.847 14.66C122.135 15.364 122.279 16.26 122.279 17.348V24.5H119.279V17.468C119.279 16.572 119.127 15.916 118.823 15.5C118.535 15.084 118.039 14.876 117.335 14.876C116.823 14.876 116.375 15.004 115.991 15.26C115.607 15.5 115.311 15.852 115.103 16.316C114.911 16.78 114.815 17.34 114.815 17.996V24.5H111.815V17.468C111.815 16.572 111.663 15.916 111.359 15.5C111.071 15.084 110.583 14.876 109.895 14.876C109.367 14.876 108.911 15.004 108.527 15.26C108.159 15.5 107.871 15.852 107.663 16.316C107.471 16.78 107.375 17.34 107.375 17.996V24.5H104.375ZM126.094 28.82V12.764H129.022V15.236H128.782C129.022 14.42 129.51 13.764 130.246 13.268C130.998 12.772 131.87 12.524 132.862 12.524C133.886 12.524 134.782 12.772 135.55 13.268C136.334 13.764 136.942 14.468 137.374 15.38C137.806 16.276 138.022 17.356 138.022 18.62C138.022 19.868 137.806 20.956 137.374 21.884C136.942 22.796 136.342 23.5 135.574 23.996C134.806 24.492 133.902 24.74 132.862 24.74C131.886 24.74 131.03 24.5 130.294 24.02C129.558 23.524 129.062 22.884 128.806 22.1H129.094V28.82H126.094ZM132.022 22.46C132.918 22.46 133.638 22.14 134.182 21.5C134.726 20.844 134.998 19.884 134.998 18.62C134.998 17.34 134.726 16.388 134.182 15.764C133.638 15.124 132.918 14.804 132.022 14.804C131.126 14.804 130.406 15.124 129.862 15.764C129.318 16.388 129.046 17.34 129.046 18.62C129.046 19.884 129.318 20.844 129.862 21.5C130.406 22.14 131.126 22.46 132.022 22.46Z" fill="#0A071D"/>
</svg>
