<svg width="48" height="48" viewBox="0 0 48 48" fill="none" xmlns="http://www.w3.org/2000/svg">
<path fill-rule="evenodd" clip-rule="evenodd" d="M25.3773 30.5662C25.9551 30.2333 26.6885 30.3626 27.1176 30.8731L28.5801 32.6129L18.7656 38.9708L12.6592 37.8941L25.3773 30.5662Z" fill="white" fill-opacity="0.3"/>
<path d="M26.3168 10.3382C27.3386 9.12047 29.2955 9.46553 29.8392 10.9593L38.7084 35.3272C39.2521 36.821 37.9748 38.3432 36.4093 38.0672L10.8715 33.5642C9.30602 33.2881 8.62639 31.4209 9.64822 30.2031L26.3168 10.3382Z" fill="url(#paint0_linear_night)"/>
<path d="M25.5 16C26.8807 16 28 17.1193 28 18.5C28 19.8807 26.8807 21 25.5 21C25.1 21 24.72 20.92 24.37 20.78C25.05 20.26 25.5 19.43 25.5 18.5C25.5 17.57 25.05 16.74 24.37 16.22C24.72 16.08 25.1 16 25.5 16Z" fill="white"/>
<path d="M22.0858 26.7281C22.6636 26.3952 23.3969 26.5245 23.826 27.035L31.8626 36.5953L11.2641 32.9632L22.0858 26.7281Z" fill="white" fill-opacity="0.3"/>
<path d="M27.3966 26.8488C28.0022 26.4565 28.8079 26.5986 29.2428 27.1743L37.0807 37.5512L16.4822 33.9192L27.3966 26.8488Z" fill="white"/>
<defs>
<linearGradient id="paint0_linear_night" x1="23.9994" y1="9.59996" x2="23.9994" y2="38.0998" gradientUnits="userSpaceOnUse">
<stop stop-color="#1a237e"/>
<stop offset="1" stop-color="#283593"/>
</linearGradient>
</defs>
</svg>
