<?xml version="1.0" encoding="UTF-8"?>
<svg id="Logos" xmlns="http://www.w3.org/2000/svg" viewBox="0 0 657.29 156.5">
  <defs>
    <style>
      .cls-1 {
        fill: #00aeef;
      }

      .cls-1, .cls-2 {
        stroke-width: 0px;
      }

      .cls-2 {
        fill: #003d71;
      }
    </style>
  </defs>
  <g>
    <path class="cls-2" d="M464.99,47.02c-.66,0-1.29,0-2-.02v6.52h-3.31v-18.08c1.73-.1,3.33-.12,5.09-.12,4.43,0,7.93.85,7.96,5.67v.27c0,4.87-3.53,5.77-7.74,5.77ZM469.4,40.98c-.02-2.8-2-2.8-5.91-2.8h-.49v5.94c.63.02,1.29.02,1.95.02,2.97,0,4.45-.51,4.45-2.9v-.27Z"/>
    <path class="cls-2" d="M482.22,53.91c-4.6,0-7.42-2.51-7.42-8.37v-2.12c0-5.84,2.85-8.35,7.42-8.35s7.45,2.51,7.45,8.35v2.12c0,5.87-2.85,8.37-7.45,8.37ZM486.28,43.44c0-4.04-1.58-5.4-4.06-5.4s-4.04,1.36-4.04,5.4v2.09c0,4.07,1.61,5.43,4.04,5.43s4.06-1.36,4.06-5.43v-2.09Z"/>
    <path class="cls-2" d="M492.85,53.52v-18.08h3.41v15.21h7.67v2.87h-11.07Z"/>
    <path class="cls-2" d="M511.64,46.75v6.77h-3.31v-6.77l-6.04-11.32h3.55l2.85,5.23c.44.83.92,1.9,1.26,2.8h.15c.32-.9.88-1.97,1.31-2.8l2.85-5.23h3.41l-6.04,11.32Z"/>
    <path class="cls-2" d="M527.58,38.26v15.26h-3.41v-15.26h-5.4v-2.82h14.21v2.82h-5.4Z"/>
    <path class="cls-2" d="M535.58,53.52v-18.08h11.51v2.82h-8.1v4.6h7.59v2.73h-7.59v5.14h8.1v2.8h-11.51Z"/>
    <path class="cls-2" d="M557.09,53.91c-4.65,0-7.71-1.75-7.71-8.23v-2.41c0-6.47,3.07-8.2,7.71-8.2,1.58,0,3.72.29,4.55.49v2.7c-1.19-.1-2.92-.22-4.33-.22-3.04,0-4.53,1.07-4.53,5.23v2.41c0,4.16,1.48,5.26,4.53,5.26,1.41,0,3.14-.12,4.33-.22v2.73c-.83.19-2.97.46-4.55.46Z"/>
    <path class="cls-2" d="M575.63,53.52v-7.96h-7.91v7.96h-3.41v-18.08h3.41v7.2h7.91v-7.2h3.41v18.08h-3.41Z"/>
    <path class="cls-2" d="M593.1,53.52l-5.79-10.73c-.44-.83-.95-1.8-1.36-2.7h-.05c.05,1.02.1,2.14.1,3.24v10.2h-3.12v-18.08h3.94l5.77,10.51c.44.83,1,1.87,1.39,2.75h.05c-.07-1.07-.1-2.34-.1-3.43v-9.83h3.14v18.08h-3.97Z"/>
    <path class="cls-2" d="M600.91,53.52v-18.08h3.41v18.08h-3.41Z"/>
    <path class="cls-2" d="M615.22,53.91c-4.65,0-7.71-1.75-7.71-8.23v-2.41c0-6.47,3.07-8.2,7.71-8.2,1.58,0,3.72.29,4.55.49v2.7c-1.19-.1-2.92-.22-4.33-.22-3.04,0-4.53,1.07-4.53,5.23v2.41c0,4.16,1.48,5.26,4.53,5.26,1.41,0,3.14-.12,4.33-.22v2.73c-.83.19-2.97.46-4.55.46Z"/>
    <path class="cls-2" d="M466.67,83.11c-4.6,0-7.11-2.58-7.11-7.79v-10.68h3.36v10.51c0,3.65.85,5.04,3.75,5.04s3.75-1.39,3.75-5.04v-10.51h3.33v10.68c0,5.21-2.51,7.79-7.08,7.79Z"/>
    <path class="cls-2" d="M487.7,82.72l-5.79-10.73c-.44-.83-.95-1.8-1.36-2.7h-.05c.05,1.02.1,2.14.1,3.24v10.2h-3.12v-18.08h3.94l5.77,10.51c.44.83,1,1.87,1.39,2.75h.05c-.07-1.07-.1-2.34-.1-3.43v-9.83h3.14v18.08h-3.97Z"/>
    <path class="cls-2" d="M495.51,82.72v-18.08h3.41v18.08h-3.41Z"/>
    <path class="cls-2" d="M511.96,82.72h-4.96l-5.45-18.08h3.5l3.72,12.53c.32,1.05.49,2.29.73,3.24h.05c.19-.97.41-2.19.73-3.24l3.72-12.53h3.43l-5.48,18.08Z"/>
    <path class="cls-2" d="M520.06,82.72v-18.08h11.51v2.82h-8.1v4.6h7.59v2.73h-7.59v5.14h8.1v2.8h-11.51Z"/>
    <path class="cls-2" d="M545.31,82.72l-3.99-6.69c-.49.02-1.02.02-1.58.02h-1.68v6.67h-3.31v-18.08c1.61-.07,3.24-.12,5.06-.12,4.36,0,7.96.88,7.96,5.65v.17c0,2.75-1.19,4.19-3.12,5.01l4.26,7.37h-3.6ZM544.44,70.21c0-2.8-1.95-2.82-6.38-2.82v5.94c.63.02,1.24.02,1.87.02,3.12,0,4.5-.66,4.5-2.99v-.15Z"/>
    <path class="cls-2" d="M556.68,83.11c-2.36,0-4.8-.32-5.7-.56v-2.6c1.48.15,3.16.29,5.43.29s3.24-.61,3.24-2.24c0-1.17-.46-1.83-2.26-2.58l-2.73-1.12c-2.68-1.1-4.11-2.63-4.11-5.26,0-3.5,2.19-4.77,6.47-4.77,2.29,0,4.43.37,5.28.58v2.58c-1.39-.12-3.24-.32-5.14-.32-2.12,0-3.26.36-3.26,1.82,0,1.1.51,1.66,2.31,2.39l2.46,1c3.16,1.29,4.43,2.58,4.43,5.65,0,3.29-2.36,5.13-6.42,5.13Z"/>
    <path class="cls-2" d="M566.21,82.72v-18.08h3.41v18.08h-3.41Z"/>
    <path class="cls-2" d="M581.03,67.46v15.26h-3.41v-15.26h-5.4v-2.82h14.21v2.82h-5.4Z"/>
    <path class="cls-2" d="M596.87,75.95v6.77h-3.31v-6.77l-6.04-11.32h3.55l2.85,5.23c.44.83.93,1.9,1.27,2.8h.15c.32-.9.88-1.97,1.31-2.8l2.85-5.23h3.41l-6.04,11.32Z"/>
    <path class="cls-2" d="M466.45,112.31c-4.6,0-7.42-2.51-7.42-8.37v-2.12c0-5.84,2.85-8.35,7.42-8.35s7.45,2.51,7.45,8.35v2.12c0,5.86-2.85,8.37-7.45,8.37ZM470.52,101.84c0-4.04-1.58-5.4-4.06-5.4s-4.04,1.36-4.04,5.4v2.09c0,4.06,1.61,5.43,4.04,5.43s4.06-1.36,4.06-5.43v-2.09Z"/>
    <path class="cls-2" d="M480.49,96.68v4.58h7.59v2.73h-7.59v7.93h-3.41v-18.08h11.51v2.85h-8.1Z"/>
    <path class="cls-2" d="M496.31,111.92v-18.08h3.41v15.21h7.67v2.87h-11.07Z"/>
    <path class="cls-2" d="M509.93,111.92v-18.08h3.41v18.08h-3.41Z"/>
    <path class="cls-2" d="M522.64,112.31c-2.36,0-4.8-.32-5.7-.56v-2.6c1.48.15,3.16.29,5.43.29s3.24-.61,3.24-2.24c0-1.17-.46-1.83-2.26-2.58l-2.73-1.12c-2.68-1.1-4.11-2.63-4.11-5.26,0-3.5,2.19-4.77,6.47-4.77,2.29,0,4.43.37,5.28.58v2.58c-1.39-.12-3.24-.32-5.14-.32-2.12,0-3.26.36-3.26,1.82,0,1.1.51,1.66,2.31,2.39l2.46,1c3.16,1.29,4.43,2.58,4.43,5.65,0,3.29-2.36,5.13-6.42,5.13Z"/>
    <path class="cls-2" d="M537.41,112.06c-2.07,0-2.94-.05-5.23-.15v-18.08c2.38-.1,3.26-.15,5.33-.15,4.84,0,7.84.85,7.84,4.92v.22c0,1.56-.68,3.07-2.29,3.8,1.7.71,2.39,2.26,2.39,3.82v.24c0,4.53-3.36,5.38-8.03,5.38ZM542.03,98.73c0-2.07-1.63-2.24-4.53-2.24h-2.02v4.89h3.07c2.8,0,3.48-.93,3.48-2.43v-.22ZM542.1,106.42c-.02-1.58-.75-2.58-3.53-2.58h-3.09v5.43h.93c3.7,0,5.69-.02,5.69-2.58v-.27Z"/>
    <path class="cls-2" d="M555.36,112.31c-4.6,0-7.42-2.51-7.42-8.37v-2.12c0-5.84,2.85-8.35,7.42-8.35s7.45,2.51,7.45,8.35v2.12c0,5.86-2.85,8.37-7.45,8.37ZM559.43,101.84c0-4.04-1.58-5.4-4.06-5.4s-4.04,1.36-4.04,5.4v2.09c0,4.06,1.61,5.43,4.04,5.43s4.06-1.36,4.06-5.43v-2.09Z"/>
    <path class="cls-2" d="M576.22,111.92l-5.79-10.73c-.44-.83-.95-1.8-1.36-2.7h-.05c.05,1.02.1,2.14.1,3.24v10.2h-3.12v-18.08h3.94l5.77,10.51c.44.83,1,1.87,1.39,2.75h.05c-.07-1.07-.1-2.34-.1-3.43v-9.83h3.14v18.08h-3.97Z"/>
  </g>
  <rect class="cls-2" x="433.44" y="35.16" width="1.68" height="77.15"/>
  <g>
    <path class="cls-1" d="M149.57,56.27c-1.2,0-2.36,0-3.65-.04v11.94h-6.06v-33.09c3.16-.18,6.1-.22,9.31-.22,8.11,0,14.52,1.56,14.56,10.38v.49c0,8.91-6.46,10.55-14.16,10.55ZM157.63,45.22c-.04-5.12-3.65-5.12-10.82-5.12h-.89v10.87c1.16.04,2.36.04,3.56.04,5.43,0,8.15-.94,8.15-5.3v-.49Z"/>
    <path class="cls-1" d="M181.08,68.87c-8.42,0-13.58-4.59-13.58-15.32v-3.87c0-10.69,5.21-15.28,13.58-15.28s13.63,4.59,13.63,15.28v3.87c0,10.73-5.21,15.32-13.63,15.32ZM188.51,49.72c0-7.39-2.9-9.89-7.44-9.89s-7.39,2.49-7.39,9.89v3.83c0,7.44,2.94,9.93,7.39,9.93s7.44-2.49,7.44-9.93v-3.83Z"/>
    <path class="cls-1" d="M199.93,68.16v-33.09h6.23v27.84h14.03v5.26h-20.26Z"/>
    <path class="cls-1" d="M224.4,68.16v-33.09h6.23v33.09h-6.23Z"/>
    <path class="cls-1" d="M250.95,40.24v27.92h-6.23v-27.92h-9.89v-5.17h26.01v5.17h-9.89Z"/>
    <path class="cls-1" d="M265.11,68.16v-33.09h21.07v5.17h-14.83v8.42h13.9v4.99h-13.9v9.4h14.83v5.12h-21.07ZM277.94,33.02h-5.61l5.83-6.64h6.81l-7.04,6.64Z"/>
    <path class="cls-1" d="M303.99,68.87c-8.51,0-14.12-3.21-14.12-15.05v-4.41c0-11.85,5.61-15.01,14.12-15.01,2.9,0,6.81.53,8.33.89v4.94c-2.18-.18-5.35-.4-7.93-.4-5.57,0-8.28,1.96-8.28,9.57v4.41c0,7.61,2.72,9.62,8.28,9.62,2.58,0,5.74-.22,7.93-.4v4.99c-1.51.36-5.43.85-8.33.85Z"/>
    <path class="cls-1" d="M335.33,68.16l-10.6-19.64c-.8-1.51-1.74-3.3-2.49-4.94h-.09c.09,1.87.18,3.92.18,5.92v18.66h-5.7v-33.09h7.21l10.56,19.24c.8,1.51,1.83,3.43,2.54,5.03h.09c-.13-1.96-.18-4.28-.18-6.28v-17.99h5.75v33.09h-7.26Z"/>
    <path class="cls-1" d="M348.78,68.16v-33.09h6.23v33.09h-6.23Z"/>
    <path class="cls-1" d="M374.38,68.87c-8.51,0-14.12-3.21-14.12-15.05v-4.41c0-11.85,5.61-15.01,14.12-15.01,2.9,0,6.81.53,8.33.89v4.94c-2.18-.18-5.35-.4-7.93-.4-5.57,0-8.28,1.96-8.28,9.57v4.41c0,7.61,2.72,9.62,8.28,9.62,2.58,0,5.74-.22,7.93-.4v4.99c-1.51.36-5.43.85-8.33.85Z"/>
    <path class="cls-1" d="M399.14,68.87c-8.42,0-13.58-4.59-13.58-15.32v-3.87c0-10.69,5.21-15.28,13.58-15.28s13.63,4.59,13.63,15.28v3.87c0,10.73-5.21,15.32-13.63,15.32ZM406.58,49.72c0-7.39-2.9-9.89-7.44-9.89s-7.39,2.49-7.39,9.89v3.83c0,7.44,2.94,9.93,7.39,9.93s7.44-2.49,7.44-9.93v-3.83Z"/>
    <path class="cls-1" d="M150.2,112.65c-4.05,0-6.33-.09-10.33-.27v-33.09c4.01-.18,5.97-.27,10.33-.27,10.73,0,15.28,4.99,15.28,14.65v4.19c0,9.75-4.28,14.79-15.28,14.79ZM159.28,93.68c0-7.21-2.85-9.35-9.22-9.35h-4.1v23.07h4.1c6.37,0,9.22-2.32,9.22-9.53v-4.19Z"/>
    <path class="cls-1" d="M170.7,112.39v-33.09h21.07v5.17h-14.83v8.42h13.9v4.99h-13.9v9.4h14.83v5.12h-21.07Z"/>
    <path class="cls-1" d="M206.33,112.39v-33.09h6.23v27.84h14.03v5.26h-20.26Z"/>
    <path class="cls-1" d="M230.8,112.39v-33.09h6.23v33.09h-6.23Z"/>
    <path class="cls-1" d="M253,113.1c-4.32,0-8.77-.58-10.42-1.02v-4.77c2.72.27,5.79.53,9.93.53s5.92-1.11,5.92-4.1c0-2.14-.85-3.34-4.14-4.72l-4.99-2.05c-4.9-2-7.53-4.81-7.53-9.62,0-6.41,4.01-8.73,11.85-8.73,4.19,0,8.11.67,9.66,1.07v4.72c-2.54-.22-5.92-.58-9.4-.58-3.87,0-5.97.67-5.97,3.34,0,2,.94,3.03,4.23,4.37l4.5,1.83c5.79,2.36,8.11,4.72,8.11,10.33,0,6.01-4.32,9.4-11.76,9.4Z"/>
    <path class="cls-1" d="M279.05,112.65c-3.79,0-5.39-.09-9.57-.27v-33.09c4.36-.18,5.97-.27,9.75-.27,8.86,0,14.34,1.56,14.34,9v.4c0,2.85-1.25,5.61-4.19,6.95,3.12,1.29,4.36,4.14,4.36,6.99v.45c0,8.28-6.15,9.84-14.7,9.84ZM287.51,88.25c0-3.79-2.98-4.1-8.28-4.1h-3.7v8.95h5.61c5.12,0,6.37-1.69,6.37-4.45v-.4ZM287.65,102.32c-.04-2.9-1.38-4.72-6.46-4.72h-5.66v9.93h1.69c6.77,0,10.42-.04,10.42-4.72v-.49Z"/>
    <path class="cls-1" d="M311.43,113.1c-8.42,0-13.58-4.59-13.58-15.32v-3.87c0-10.69,5.21-15.28,13.58-15.28s13.63,4.59,13.63,15.28v3.87c0,10.73-5.21,15.32-13.63,15.32ZM318.86,93.95c0-7.39-2.9-9.89-7.44-9.89s-7.39,2.49-7.39,9.89v3.83c0,7.44,2.94,9.93,7.39,9.93s7.44-2.49,7.44-9.93v-3.83Z"/>
    <path class="cls-1" d="M349.89,112.39l-2.85-9.26h-10.64l-2.94,9.26h-6.37l10.02-33.09h9.31l10.02,33.09h-6.55ZM343.08,88.87c-.49-1.65-.85-3.43-1.16-5.21h-.4c-.36,1.78-.67,3.56-1.16,5.21l-2.81,9.13h8.28l-2.76-9.13Z"/>
  </g>
  <path class="cls-2" d="M37.52,29.99v100.13c18.68-11.7,39.29-16.29,58.91-16.29,8.67,0,16.77.93,24.18,2.93V29.99H37.52ZM61.44,65.18c3.37,2.8,6.62,5.78,9.76,8.9-.82,9.35-2.29,18.46-4.31,27.29-3.01.78-6.01,1.71-9,2.78,1.3-6.78,2.3-13.68,2.89-20.76.5-6.13.71-12.21.66-18.21ZM45.3,77.7c3.28,2.72,6.45,5.63,9.51,8.67-.7,6.87-1.77,13.59-3.12,20.19-3.01,1.29-5.98,2.75-8.92,4.36.78-4.93,1.44-9.93,1.86-15,.51-6.14.71-12.21.67-18.22ZM96.43,97.67c-7.9,0-15.96.76-23.99,2.42,2.19-9.39,3.79-19.08,4.61-29.06.51-6.14.72-12.21.67-18.21,14.15,11.72,28.09,29.58,37.62,46.59-5.93-1.16-12.25-1.73-18.91-1.73Z"/>
</svg>