<?xml version="1.0" encoding="utf-8"?>
<!-- Generator: Adobe Illustrator 25.4.1, SVG Export Plug-In . SVG Version: 6.00 Build 0)  -->
<svg version="1.1" id="Layer_1" xmlns="http://www.w3.org/2000/svg" xmlns:xlink="http://www.w3.org/1999/xlink" x="0px" y="0px"
	 viewBox="0 0 954.6 528.8" style="enable-background:new 0 0 954.6 528.8;" xml:space="preserve">
<style type="text/css">
	.st0{fill:#FFFFFF;}
</style>
<g>
	<g>
		<path d="M115.2,211.7v91.3l43.4-57.4h28.1l-39.1,50.9l42.7,66.6h-29l-30.7-50.2l-15,16.3v33.9H89.4V211.7H115.2z"/>
		<path d="M263,269.8h-26.8v60c0,11.1,5.5,16,14.4,16c3.6,0,6.9-0.7,10.1-2l2.3,16c-5.9,3.3-13,5.2-21.5,5.2
			c-22.2,0-31.3-13-31.3-36.5v-57.7l-14-3.6v-16.3l15.7-1.3l6.9-26.1h17.9v26.8h26.8v19.6H263z"/>
		<path d="M349.1,245.7h25.8v117.8H352l-1.3-11.1c-8.5,8.8-19.2,13-32.3,13c-23.8,0-37.2-17.3-37.2-44.4v-75.4h26.1V321
			c0,15.7,6.5,23.5,19.6,23.5c10.1,0,17.9-5.2,22.5-11.1v-87.8H349.1z"/>
	</g>
	<g>
		<path d="M538,155.6v33.3l16-20.9h10.1l-14.4,18.6l15.7,24.5h-10.8l-11.4-18.3l-5.5,5.9v12.4h-9.1v-55.5
			C528.5,155.6,538,155.6,538,155.6z"/>
		<path d="M570.6,177.1c2.9-5.9,7.8-10.1,15.3-10.1c10.1,0,14.4,6.5,14.4,14.7v20.6c0,2,1,3.3,2.9,3.3h1v5.5
			c-1.3,0.3-2.9,0.7-4.6,0.7c-3.9,0-6.2-1.6-7.8-3.9c-2.9,2.9-6.9,4.2-11.1,4.2c-7.5,0-12.1-4.9-12.1-11.7c0-7.5,4.6-14,18.9-14h2.9
			V182c0-5.2-2.3-7.5-6.2-7.5c-3.3,0-6.2,2-8.2,5.9L570.6,177.1z M591.2,201.9v-9.8h-2.9c-7.5,0-9.8,2.6-9.8,6.9
			c0,4.6,2,5.9,5.5,5.9C586.9,205.2,589.2,204.2,591.2,201.9z"/>
		<path d="M634.9,168h9.5v43.1h-8.5l-0.3-3.9c-2.9,3.3-7.2,4.9-11.7,4.9c-8.8,0-13.7-6.2-13.7-16.3V168h9.5v27.7
			c0,5.5,2.3,8.8,7.2,8.8c3.6,0,6.5-2,8.2-3.9L634.9,168L634.9,168z"/>
		<path d="M663.6,211.1h-9.5V168h8.5l0.3,4.2c2.9-3.3,6.9-4.9,11.7-4.9c8.8,0,13.7,6.2,13.7,16.3v27.7h-9.5V184
			c0-5.9-2.6-8.8-7.2-8.8c-3.6,0-6.5,1.6-8.2,4.2L663.6,211.1L663.6,211.1z"/>
		<path d="M697.2,177.1c2.9-5.9,7.8-10.1,15.3-10.1c10.1,0,14.4,6.5,14.4,14.7v20.6c0,2,1,3.3,2.9,3.3h1v5.5
			c-1.3,0.3-2.9,0.7-4.6,0.7c-3.9,0-6.2-1.6-7.8-3.9c-2.9,2.9-6.9,4.2-11.1,4.2c-7.5,0-12.1-4.9-12.1-11.7c0-7.5,4.6-14,18.9-14h2.9
			V182c0-5.2-2.3-7.5-6.2-7.5c-3.3,0-6.2,2-8.2,5.9L697.2,177.1z M717.4,201.9v-9.8h-2.9c-7.5,0-9.8,2.6-9.8,6.9
			c0,4.6,2,5.9,5.5,5.9C713.2,205.2,715.5,204.2,717.4,201.9z"/>
		<path d="M758.8,179.4c-1.6-3.9-4.9-5.2-8.2-5.2c-4.2,0-6.2,2-6.2,4.9c0,8.2,20.6,5.5,20.6,19.9c0,7.5-6.2,13-14.7,13
			c-7.2,0-12.4-2.9-15.3-9.5l5.9-3.3c2,4.2,5.9,5.9,9.1,5.9c3.9,0,5.9-2,5.9-5.5c0-8.5-20.6-5.5-20.6-19.9c0-6.9,5.2-12.4,14.7-12.4
			c6.9,0,11.7,3.3,14.4,9.5L758.8,179.4z"/>
		<path d="M552.3,243.1h9.5v43.1h-8.5l-0.3-3.9c-2.9,3.3-7.2,4.9-11.7,4.9c-8.8,0-13.7-6.2-13.7-16.3v-27.7h9.5v27.7
			c0,5.5,2.3,8.8,7.2,8.8c3.6,0,6.5-2,8.2-3.9L552.3,243.1L552.3,243.1z"/>
		<path d="M581,286.1h-9.5v-43.1h8.5l0.3,4.2c2.9-3.3,6.9-4.9,11.7-4.9c8.8,0,13.7,6.2,13.7,16.3v27.7h-9.5V259
			c0-5.9-2.6-8.8-7.2-8.8c-3.6,0-6.5,1.6-8.2,4.2L581,286.1L581,286.1z"/>
		<path d="M625.4,244.7v41.4h-9.5v-41.4H625.4z M624.8,230.7v8.2h-8.2v-8.2H624.8z"/>
		<path d="M657.4,286.1h-10.4l-15-43.1h10.8l9.5,34.6l9.8-34.6h10.8L657.4,286.1z"/>
		<path d="M685.4,265.9v4.9c0,5.9,2.9,8.8,8.2,8.8c3.9,0,6.5-1.6,8.2-6.2l6.9,2.6c-2.6,7.5-7.5,11.1-16,11.1
			c-10.8,0-16.6-6.9-16.6-15.7v-13.7c0-8.8,5.5-15.7,16.6-15.7c10.4,0,16,7.2,16,16v7.5h-23.2V265.9z M685.4,260h14.7v-2.9
			c0-5.2-2.6-7.8-7.5-7.8c-5.2,0-7.5,2.9-7.5,8.2v2.6H685.4z"/>
		<path d="M739.6,252.2c-1.3-0.7-2.6-1-4.2-1c-5.5,0-8.8,4.2-9.5,11.1v24.1h-9.5v-43.4h8.2l0.7,7.2c2.6-5.5,6.2-7.8,10.4-7.8
			c1.6,0,3.6,0.3,4.9,1L739.6,252.2z"/>
		<path d="M769,254.5c-1.6-3.9-4.9-5.2-8.2-5.2c-4.2,0-6.2,2-6.2,4.9c0,8.2,20.6,5.5,20.6,19.9c0,7.5-6.2,13-14.7,13
			c-7.2,0-12.4-2.9-15.3-9.5l5.9-3.3c2,4.2,5.9,5.9,9.1,5.9c3.9,0,5.9-2,5.9-5.5c0-8.5-20.6-5.5-20.6-19.9c0-6.9,5.2-12.4,14.7-12.4
			c6.9,0,11.7,3.3,14.4,9.5L769,254.5z"/>
		<path d="M792.4,244.7v41.4H783v-41.4H792.4z M791.8,230.7v8.2h-8.2v-8.2H791.8z"/>
		<path d="M824.1,251.9h-9.8v21.9c0,3.9,2,5.9,5.2,5.9c1.3,0,2.6-0.3,3.6-0.7l1,5.9c-2.3,1.3-4.9,2-7.8,2c-8.2,0-11.4-4.9-11.4-13.4
			v-21.2l-5.2-1.3V245l5.5-0.3l2.6-9.5h6.5v9.8h9.8L824.1,251.9L824.1,251.9z"/>
		<path d="M852.8,282.9c-3.6,8.8-8.2,12.4-17,13l-0.7-6.5c4.9-0.7,7.2-2.3,9.1-6.9l0.3-0.7l-17-38.5h10.4l11.1,29l9.1-29h9.8
			L852.8,282.9z"/>
		<path d="M925.6,271.4c0,8.8-5.9,15.7-17.3,15.7s-17.3-6.9-17.3-15.7v-13.4c0-8.8,5.9-15.7,17.3-15.7s17.3,6.9,17.3,15.7V271.4z
			 M900.4,270.8c0,5.5,2.6,8.8,7.8,8.8c5.5,0,7.8-3.3,7.8-8.8v-12.7c0-5.5-2.3-8.8-7.8-8.8c-5.2,0-7.8,3.3-7.8,8.8V270.8z"/>
		<path d="M954.3,251.9h-9.5v34.3h-9.5v-34.3h-4.9V245h4.9v-1c0-8.5,4.9-13.7,18.3-14l0.3,6.2c-7.5,0.3-9.5,2.3-9.5,7.5v1h10.1v7.2
			H954.3z"/>
		<path d="M549.1,326.9h-9.8v21.9c0,3.9,2,5.9,5.2,5.9c1.3,0,2.6-0.3,3.6-0.7l1,5.9c-2.3,1.3-4.9,2-7.8,2c-8.2,0-11.4-4.9-11.4-13.4
			v-21.2l-5.2-1.3V320l5.5-0.3l2.6-9.5h6.5v9.8h9.8L549.1,326.9L549.1,326.9z"/>
		<path d="M564.4,340.9v4.9c0,5.9,2.9,8.8,8.2,8.8c3.9,0,6.5-1.6,8.2-6.2l6.9,2.6c-2.6,7.5-7.5,11.1-16,11.1
			c-10.8,0-16.6-6.9-16.6-15.7v-13.7c0-8.8,5.5-15.7,16.6-15.7c10.4,0,16,7.2,16,16v7.5h-23.2V340.9z M564.4,335.1h14.7v-2.9
			c0-5.2-2.6-7.8-7.5-7.8c-5.2,0-7.5,2.9-7.5,8.2v2.6H564.4z"/>
		<path d="M618.9,330.2c-1.3-3.9-4.2-5.5-7.5-5.5c-4.9,0-7.8,2.6-7.8,8.5v12.4c0,5.9,2.9,8.8,7.8,8.8c3.6,0,6.2-1.6,7.5-5.9l6.9,2.6
			c-2.6,6.5-7.5,10.4-15.3,10.4c-10.8,0-16.3-7.2-16.3-15.7v-13.4c0-8.8,5.5-15.7,16.3-15.7c7.2,0,12.7,3.6,15,10.4L618.9,330.2z"/>
		<path d="M642,361.2h-9.5v-55.5h9.5v16c2.9-2.9,6.9-4.2,11.4-4.2c8.8,0,13.7,6.2,13.7,16.3v27.7h-9.5v-27.4c0-5.9-2.3-8.8-7.2-8.8
			c-3.6,0-6.5,2-8.2,3.9v32H642z"/>
		<path d="M685.4,361.2H676v-43.1h8.5l0.3,4.2c2.9-3.3,6.9-4.9,11.7-4.9c8.8,0,13.7,6.2,13.7,16.3v27.7h-9.5v-27.4
			c0-5.9-2.6-8.8-7.2-8.8c-3.6,0-6.5,1.6-8.2,4.2L685.4,361.2L685.4,361.2z"/>
		<path d="M752.3,346.5c0,8.8-5.9,15.7-17.3,15.7c-11.4,0-17.3-6.9-17.3-15.7v-13.4c0-8.8,5.9-15.7,17.3-15.7
			c11.4,0,17.3,6.9,17.3,15.7V346.5z M727.2,345.8c0,5.5,2.6,8.8,7.8,8.8c5.5,0,7.8-3.3,7.8-8.8v-12.7c0-5.5-2.3-8.8-7.8-8.8
			c-5.2,0-7.8,3.3-7.8,8.8V345.8z"/>
		<path d="M771.2,305.7v55.5h-9.5v-55.5H771.2z"/>
		<path d="M815,346.5c0,8.8-5.9,15.7-17.3,15.7s-17.3-6.9-17.3-15.7v-13.4c0-8.8,5.9-15.7,17.3-15.7s17.3,6.9,17.3,15.7V346.5z
			 M789.8,345.8c0,5.5,2.6,8.8,7.8,8.8c5.5,0,7.8-3.3,7.8-8.8v-12.7c0-5.5-2.3-8.8-7.8-8.8c-5.2,0-7.8,3.3-7.8,8.8V345.8z"/>
		<path d="M831.6,342.9c-1.6,1-2.6,1.6-2.6,2.9c0,1.6,1,2.6,4.6,2.6h9.8c10.4,0,14,3.9,14,10.1c0,8.2-6.9,12.7-18.6,12.7
			c-11.7,0-16.3-3.9-16.3-9.8c0-2.6,1-5.2,3.3-6.9c-2.6-1.3-4.2-3.9-4.2-6.9s1.6-5.5,5.5-7.2c-2.6-2.3-3.9-5.5-3.9-9.8
			c0-8.8,4.9-13.4,15.7-13.4c3.9,0,7.2,0.7,9.8,1.6c2.3-1.3,3.9-3.3,4.9-5.2l4.2,2c-0.7,3.3-2,5.9-4.2,7.8c1,2,1.3,4.2,1.3,6.9
			c0,8.5-4.9,13-16,13C836.2,343.5,833.6,343.5,831.6,342.9z M832.6,355.6c-1.3,1-2.3,2.6-2.3,4.6c0,3.3,2.9,4.6,8.8,4.6
			c8.5,0,10.1-2.6,10.1-5.2c0-2.9-1.3-3.9-6.5-3.9C842.7,355.6,832.6,355.6,832.6,355.6z M838.8,337.3c5.2,0,6.9-1.6,6.9-6.5
			c0-5.2-1.6-6.9-6.9-6.9s-6.9,1.6-6.9,6.9C832.2,336,833.6,337.3,838.8,337.3z"/>
		<path d="M885.7,357.9c-3.6,8.8-8.2,12.4-17,13l-0.7-6.5c4.9-0.7,7.2-2.3,9.1-6.9l0.3-0.7l-17-38.5h10.4l11.1,29l9.1-29h9.8
			L885.7,357.9z"/>
	</g>
	<path d="M954.3,389.9h-491V0H0v528.8h463.3V402.6h491V389.9z M437.8,503.4H25.4V25.4h412.4v364.4H87.4v12.7h350.4V503.4z"/>
	<g>
		<path d="M69.5,433.3v45h-9.8v-30.3h-9.1v-6.9h3.9c5.2,0,6.5-1.3,7.2-8.2h7.8V433.3z"/>
		<path d="M89.7,471.1c4.2,0,6.5-2.3,6.5-6.9V459c-2,1.6-4.2,2.3-7.5,2.3c-7.8,0-12.7-4.2-12.7-13.4c0-9.5,5.2-15,15-15
			c9.5,0,14.7,6.5,14.7,14.4v16.6c0,9.5-5.9,15.3-15,15.3c-7.2,0-11.7-3.3-13.7-9.8l6.2-3.6C83.8,469.5,86.1,471.1,89.7,471.1z
			 M95.9,450.2v-3.9c0-3.9-1.6-5.5-5.5-5.5c-3.9,0-5.5,2-5.5,6.5c0,4.9,1.6,6.5,5.2,6.5C93,453.8,95.9,452.8,95.9,450.2z"/>
		<path d="M139,445c0,15.3-15.7,16.3-18.3,25.4H139v7.8h-28.7V474c0.7-14.4,19.2-19.6,19.2-28.4c0-2.9-1.6-4.9-5.2-4.9
			c-3.3,0-5.9,2.3-6.9,6.9l-7.2-2.6c2-6.9,6.9-12.4,15-12.4C134.7,432.9,139,438.5,139,445z"/>
		<path d="M172.3,445c0,15.3-15.7,16.3-18.3,25.4h18.3v7.8h-28.7V474c0.7-14.4,19.2-19.6,19.2-28.4c0-2.9-1.6-4.9-5.2-4.9
			c-3.3,0-5.9,2.3-6.9,6.9l-7.2-2.6c2-6.9,6.9-12.4,15-12.4C168,432.9,172.3,438.5,172.3,445z"/>
	</g>
</g>
</svg>
