<svg width="256" height="256" viewBox="0 0 256 256" fill="none" xmlns="http://www.w3.org/2000/svg">
    <path d="M148.906 21.7201C156.823 12.2849 171.986 14.9584 176.198 26.5324L244.916 215.334C249.129 226.908 239.232 238.702 227.103 236.563L29.2371 201.674C17.1074 199.535 11.8417 185.067 19.7588 175.632L148.906 21.7201Z" fill="white"/>
<path d="M119.485 83.563C121.781 72.7586 132.402 65.8617 143.206 68.1582V68.1582C154.01 70.4548 160.907 81.0751 158.611 91.8794V91.8794C156.314 102.684 145.694 109.581 134.89 107.284V107.284C124.085 104.988 117.188 94.3673 119.485 83.563V83.563Z" fill="#0A071D"/>
<path d="M118.051 147.596C121.41 145.66 125.674 146.412 128.169 149.38L191.87 225.159L32.2732 197.018L118.051 147.596Z" fill="#0A071D" fill-opacity="0.3"/>
<path d="M159.351 148.297C162.872 146.016 167.556 146.842 170.084 150.19L232.305 232.566L72.7084 204.424L159.351 148.297Z" fill="#0A071D"/>
</svg>
