<svg width="2562" height="488" viewBox="0 0 2562 488" fill="none" xmlns="http://www.w3.org/2000/svg">
<path d="M265.813 34.6249C281.647 15.7544 311.971 21.1014 320.396 44.2495L457.832 421.852C466.257 445 446.465 468.588 422.205 464.31L26.4742 394.532C2.21485 390.254 -8.3166 361.319 7.51758 342.449L265.813 34.6249Z" fill="white"/>
<path d="M206.97 158.31C211.563 136.702 232.803 122.908 254.412 127.501C276.021 132.094 289.815 153.335 285.221 174.943C280.628 196.552 259.388 210.346 237.779 205.753C216.17 201.16 202.377 179.919 206.97 158.31Z" fill="#0A071D"/>
<path d="M204.102 286.376C210.82 282.505 219.348 284.008 224.337 289.944L351.739 441.503L32.5464 385.221L204.102 286.376Z" fill="#0A071D" fill-opacity="0.3"/>
<path d="M286.702 287.779C293.743 283.217 303.112 284.869 308.168 291.564L432.61 456.316L113.417 400.034L286.702 287.779Z" fill="#0A071D"/>
<path d="M735.407 390.6C717.807 390.6 701.94 387.133 687.807 380.2C673.94 373.267 663.007 362.467 655.007 347.8C647.273 332.867 643.407 314.067 643.407 291.4V170.2H719.407V279C719.407 295.8 722.473 307.8 728.607 315C735.007 322.2 743.94 325.8 755.407 325.8C762.873 325.8 769.673 324.067 775.807 320.6C781.94 317.133 786.873 311.667 790.607 304.2C794.34 296.467 796.207 286.6 796.207 274.6V170.2H872.207V387H799.807V325.8L813.807 343C806.34 359 795.54 371 781.407 379C767.273 386.733 751.94 390.6 735.407 390.6ZM1074.36 166.6C1091.16 166.6 1106.36 170.067 1119.96 177C1133.56 183.667 1144.23 194.067 1151.96 208.2C1159.96 222.333 1163.96 240.6 1163.96 263V387H1087.96V275.4C1087.96 259.933 1084.76 248.733 1078.36 241.8C1072.23 234.6 1063.56 231 1052.36 231C1044.36 231 1037.03 232.867 1030.36 236.6C1023.69 240.067 1018.49 245.533 1014.76 253C1011.03 260.467 1009.16 270.2 1009.16 282.2V387H933.16V170.2H1005.56V231.8L991.56 213.8C999.826 198.067 1011.16 186.333 1025.56 178.6C1039.96 170.6 1056.23 166.6 1074.36 166.6ZM1223.68 387V170.2H1299.68V387H1223.68ZM1261.68 146.2C1247.81 146.2 1236.61 142.333 1228.08 134.6C1219.54 126.867 1215.28 117.267 1215.28 105.8C1215.28 94.3333 1219.54 84.7333 1228.08 77C1236.61 69.2667 1247.81 65.4 1261.68 65.4C1275.54 65.4 1286.74 69.1333 1295.28 76.6C1303.81 83.8 1308.08 93.1333 1308.08 104.6C1308.08 116.6 1303.81 126.6 1295.28 134.6C1287.01 142.333 1275.81 146.2 1261.68 146.2ZM1471.87 390.6C1447.87 390.6 1426.4 385.8 1407.47 376.2C1388.8 366.6 1374.13 353.4 1363.47 336.6C1352.8 319.533 1347.47 300.067 1347.47 278.2C1347.47 256.333 1352.8 237 1363.47 220.2C1374.13 203.4 1388.8 190.333 1407.47 181C1426.4 171.4 1447.87 166.6 1471.87 166.6C1496.4 166.6 1517.6 171.8 1535.47 182.2C1553.33 192.6 1566 207.267 1573.47 226.2L1514.67 256.2C1509.6 246.067 1503.33 238.733 1495.87 234.2C1488.4 229.4 1480.27 227 1471.47 227C1462.67 227 1454.67 229 1447.47 233C1440.27 237 1434.53 242.867 1430.27 250.6C1426.27 258.067 1424.27 267.267 1424.27 278.2C1424.27 289.4 1426.27 298.867 1430.27 306.6C1434.53 314.333 1440.27 320.2 1447.47 324.2C1454.67 328.2 1462.67 330.2 1471.47 330.2C1480.27 330.2 1488.4 327.933 1495.87 323.4C1503.33 318.6 1509.6 311.133 1514.67 301L1573.47 331C1566 349.933 1553.33 364.6 1535.47 375C1517.6 385.4 1496.4 390.6 1471.87 390.6ZM1746.48 387V346.6L1741.28 336.6V262.2C1741.28 250.2 1737.55 241 1730.08 234.6C1722.88 227.933 1711.28 224.6 1695.28 224.6C1684.88 224.6 1674.35 226.333 1663.68 229.8C1653.01 233 1643.95 237.533 1636.48 243.4L1610.88 191.8C1623.15 183.8 1637.81 177.667 1654.88 173.4C1672.21 168.867 1689.41 166.6 1706.48 166.6C1741.68 166.6 1768.88 174.733 1788.08 191C1807.55 207 1817.28 232.2 1817.28 266.6V387H1746.48ZM1682.48 390.6C1665.15 390.6 1650.48 387.667 1638.48 381.8C1626.48 375.933 1617.28 367.933 1610.88 357.8C1604.75 347.667 1601.68 336.333 1601.68 323.8C1601.68 310.467 1605.01 299 1611.68 289.4C1618.61 279.533 1629.15 272.067 1643.28 267C1657.41 261.667 1675.68 259 1698.08 259H1749.28V298.6H1708.48C1696.21 298.6 1687.55 300.6 1682.48 304.6C1677.68 308.6 1675.28 313.933 1675.28 320.6C1675.28 327.267 1677.81 332.6 1682.88 336.6C1687.95 340.6 1694.88 342.6 1703.68 342.6C1711.95 342.6 1719.41 340.6 1726.08 336.6C1733.01 332.333 1738.08 325.933 1741.28 317.4L1751.68 345.4C1747.68 360.333 1739.81 371.667 1728.08 379.4C1716.61 386.867 1701.41 390.6 1682.48 390.6ZM2159.65 166.6C2176.45 166.6 2191.39 170.067 2204.45 177C2217.79 183.667 2228.19 194.067 2235.65 208.2C2243.39 222.333 2247.25 240.6 2247.25 263V387H2171.25V275.4C2171.25 259.933 2168.32 248.733 2162.45 241.8C2156.59 234.6 2148.59 231 2138.45 231C2131.25 231 2124.72 232.733 2118.85 236.2C2112.99 239.667 2108.45 245 2105.25 252.2C2102.05 259.133 2100.45 268.2 2100.45 279.4V387H2024.45V275.4C2024.45 259.933 2021.52 248.733 2015.65 241.8C2010.05 234.6 2002.05 231 1991.65 231C1984.19 231 1977.52 232.733 1971.65 236.2C1966.05 239.667 1961.52 245 1958.05 252.2C1954.85 259.133 1953.25 268.2 1953.25 279.4V387H1877.25V170.2H1949.65V230.6L1935.25 213.4C1943.25 197.933 1954.19 186.333 1968.05 178.6C1981.92 170.6 1997.39 166.6 2014.45 166.6C2033.92 166.6 2050.99 171.667 2065.65 181.8C2080.59 191.667 2090.59 207.133 2095.65 228.2L2070.85 223C2078.59 205.4 2090.19 191.667 2105.65 181.8C2121.39 171.667 2139.39 166.6 2159.65 166.6ZM2443.62 390.6C2425.22 390.6 2409.49 386.6 2396.42 378.6C2383.36 370.333 2373.36 358.067 2366.42 341.8C2359.76 325.267 2356.42 304.2 2356.42 278.6C2356.42 252.733 2359.62 231.667 2366.02 215.4C2372.42 198.867 2382.02 186.6 2394.82 178.6C2407.89 170.6 2424.16 166.6 2443.62 166.6C2463.36 166.6 2481.22 171.267 2497.22 180.6C2513.49 189.667 2526.29 202.6 2535.62 219.4C2545.22 235.933 2550.02 255.667 2550.02 278.6C2550.02 301.533 2545.22 321.4 2535.62 338.2C2526.29 355 2513.49 367.933 2497.22 377C2481.22 386.067 2463.36 390.6 2443.62 390.6ZM2307.22 464.6V170.2H2379.62V207L2379.22 278.6L2383.22 350.6V464.6H2307.22ZM2427.62 330.2C2436.16 330.2 2443.76 328.2 2450.42 324.2C2457.36 320.2 2462.82 314.333 2466.82 306.6C2471.09 298.867 2473.22 289.533 2473.22 278.6C2473.22 267.667 2471.09 258.333 2466.82 250.6C2462.82 242.867 2457.36 237 2450.42 233C2443.76 229 2436.16 227 2427.62 227C2419.09 227 2411.36 229 2404.42 233C2397.76 237 2392.29 242.867 2388.02 250.6C2384.02 258.333 2382.02 267.667 2382.02 278.6C2382.02 289.533 2384.02 298.867 2388.02 306.6C2392.29 314.333 2397.76 320.2 2404.42 324.2C2411.36 328.2 2419.09 330.2 2427.62 330.2Z" fill="white"/>
</svg>
